<?xml version="1.0" encoding="UTF-8"?>
<svg version="1.1" xmlns="http://www.w3.org/2000/svg" width="664" height="621">
<path d="M0 0 C219.12 0 438.24 0 664 0 C664 204.93 664 409.86 664 621 C444.88 621 225.76 621 0 621 C0 416.07 0 211.14 0 0 Z " fill="#F4F6F6" transform="translate(0,0)"/>
<path d="M0 0 C24.8415694 18.88162537 40.98430535 44.30948126 45.23339844 75.45751953 C45.32387451 76.25947754 45.41435059 77.06143555 45.50756836 77.88769531 C46.12994068 82.78660256 47.02922232 85.66903253 50.67089844 89.27001953 C53.83077187 91.37660182 54.70125314 91.52337481 58.32714844 91.62158203 C76.78940062 92.45554669 92.47626432 96.8939991 106.67089844 109.27001953 C107.4559375 109.94548828 108.24097656 110.62095703 109.04980469 111.31689453 C120.89957365 122.30449757 129.25118882 138.57337678 129.90917969 154.85986328 C130.34226077 175.58366701 125.13855456 193.74573684 110.67089844 209.27001953 C98.32980262 221.95777535 81.59385395 230.15616629 63.82177734 230.54467773 C61.1797387 230.56449255 58.53940328 230.57384475 55.89746094 230.57080078 C54.48261389 230.57469481 53.067768 230.57903092 51.65292358 230.58378601 C48.70623964 230.59120236 45.75967567 230.59098768 42.81298828 230.58569336 C39.03669533 230.57986259 35.26088713 230.59693765 31.48467445 230.62003803 C28.57133111 230.63475023 25.65810581 230.63565127 22.7447319 230.63252831 C21.35165816 230.63304141 19.9585778 230.63827716 18.56554031 230.64834023 C16.62494904 230.66065572 14.68425869 230.65198824 12.74365234 230.64233398 C11.6405069 230.64296341 10.53736145 230.64359283 9.40078735 230.64424133 C6.67089844 230.27001953 6.67089844 230.27001953 5.02267742 229.164855 C3.00004886 226.32966641 3.30357682 224.03489684 3.31254578 220.57843018 C3.31013234 219.89476907 3.30771891 219.21110795 3.30523235 218.50672984 C3.30062109 216.21046997 3.31731899 213.91485097 3.33374023 211.61865234 C3.33454637 209.9744162 3.33395297 208.33017886 3.33206177 206.6859436 C3.33049886 203.14185359 3.33790302 199.5979334 3.35190392 196.05387115 C3.37301052 190.44802202 3.36828361 184.84238133 3.35884094 179.23651123 C3.33594976 163.29450352 3.34786793 147.3526191 3.38598633 131.41064453 C3.40680442 122.60839681 3.40611094 113.80640746 3.38245136 105.00416446 C3.36877691 99.43358095 3.38194652 93.86391141 3.41504896 88.29341936 C3.42941066 84.82291234 3.41873638 81.3528135 3.40106583 77.88233566 C3.39789321 76.27592751 3.40495021 74.66946071 3.42313194 73.06315231 C3.81835171 63.32338874 3.81835171 63.32338874 -0.24943542 54.82196045 C-4.65337216 51.1726732 -7.18472845 50.86992381 -12.78222656 50.91845703 C-16.95071385 51.49386172 -18.52333304 53.18367416 -21.32910156 56.27001953 C-23.62769387 59.80516623 -23.60238352 62.89643791 -23.64794922 67.05810547 C-23.65810247 67.74252842 -23.66825573 68.42695137 -23.67871666 69.13211441 C-23.70926301 71.33953601 -23.7264829 73.54682922 -23.74316406 75.75439453 C-23.76010539 77.12045392 -23.77792278 78.48650273 -23.79663086 79.85253906 C-23.85973521 84.90824455 -23.90589603 89.96415004 -23.95410156 95.02001953 C-24.07785156 106.32251953 -24.20160156 117.62501953 -24.32910156 129.27001953 C-50.06910156 129.27001953 -75.80910156 129.27001953 -102.32910156 129.27001953 C-102.51660156 94.08251953 -102.51660156 94.08251953 -102.53686523 82.98803711 C-102.56675623 79.69493425 -102.56675623 79.69493425 -102.60322571 76.40190125 C-102.61627046 74.93967383 -102.61956929 73.47733909 -102.61506653 72.01506042 C-102.6101464 69.79425081 -102.63652956 67.57574979 -102.66967773 65.35522461 C-102.67967049 63.47991814 -102.67967049 63.47991814 -102.68986511 61.56672668 C-103.50253331 57.3755873 -105.07959853 55.94961774 -108.32910156 53.27001953 C-112.05023034 50.78926701 -115.01659469 50.6144553 -119.32910156 51.27001953 C-123.29417986 52.83599403 -125.9289841 54.66984333 -128.32910156 58.27001953 C-128.63445129 61.39216527 -128.63445129 61.39216527 -128.58738708 65.02648926 C-128.59106279 65.71705618 -128.59473849 66.40762311 -128.59852558 67.11911631 C-128.60852401 69.43837224 -128.60435121 71.75738927 -128.6003418 74.07666016 C-128.60472773 75.73724117 -128.6100294 77.39781998 -128.61618042 79.05839539 C-128.62769086 82.63681891 -128.63314059 86.21518314 -128.63406181 89.79362488 C-128.6359994 95.44877533 -128.65403476 101.10380274 -128.67481995 106.75891113 C-128.72404915 120.80487699 -128.75491588 134.85087629 -128.77612305 148.89691162 C-128.79262836 159.81239823 -128.81539054 170.72777961 -128.85914379 181.64319563 C-128.88097036 187.2681322 -128.88897337 192.89286913 -128.88675106 198.51784515 C-128.88841394 202.01320035 -128.90243841 205.50842442 -128.91996384 209.00373268 C-128.92557864 210.6279232 -128.92603458 212.25214073 -128.92102623 213.87633324 C-128.91491706 216.08904088 -128.92705679 218.30091492 -128.9438324 220.5135498 C-128.94684939 222.37295322 -128.94684939 222.37295322 -128.94992733 224.26992035 C-129.32910156 227.27001953 -129.32910156 227.27001953 -130.68634796 229.16764832 C-133.18304222 230.84305714 -135.27667953 230.6666059 -138.2590332 230.68994141 C-139.48203629 230.70585327 -140.70503937 230.72176514 -141.96510315 230.73815918 C-143.30648745 230.73942839 -144.64787317 230.73960205 -145.98925781 230.73876953 C-147.37674768 230.74588061 -148.76423464 230.75358098 -150.15171814 230.76184082 C-153.07136147 230.77531014 -155.99073464 230.77684953 -158.91040039 230.77099609 C-161.87143039 230.76632379 -164.83137887 230.77986164 -167.79223633 230.81201172 C-193.96146697 231.09314279 -215.17139535 229.42325342 -235.11816406 210.47705078 C-235.84777344 209.74873047 -236.57738281 209.02041016 -237.32910156 208.27001953 C-237.97621094 207.63451172 -238.62332031 206.99900391 -239.29003906 206.34423828 C-250.30177565 194.73142437 -255.50619457 178.31794494 -255.51660156 162.64501953 C-255.5349707 161.22382813 -255.5349707 161.22382813 -255.55371094 159.77392578 C-255.59143623 141.389135 -248.4366465 125.12081532 -235.57910156 112.02001953 C-222.13659037 98.84769905 -205.2133487 92.01252307 -186.50878906 91.87939453 C-181.38621125 91.71235395 -178.36417734 90.69922807 -174.32910156 87.27001953 C-172.44487126 84.18829912 -171.83656804 81.26183204 -171.25097656 77.71923828 C-171.062854 76.63521729 -170.87473145 75.55119629 -170.6809082 74.43432617 C-170.38301392 72.71330688 -170.38301392 72.71330688 -170.07910156 70.95751953 C-168.20574848 60.72753554 -165.9160842 51.619956 -161.32910156 42.27001953 C-160.85601562 41.29419922 -160.38292969 40.31837891 -159.89550781 39.31298828 C-146.98362595 14.29403021 -124.23497614 -6.11960647 -97.32910156 -14.72998047 C-96.57306641 -14.97264648 -95.81703125 -15.2153125 -95.03808594 -15.46533203 C-63.10862649 -25.27685418 -27.09163285 -19.94222705 0 0 Z " fill="#F9FBFB" transform="translate(404.3291015625,197.72998046875)"/>
<path d="M0 0 C0.76699219 0.66644531 1.53398437 1.33289063 2.32421875 2.01953125 C3.55205078 3.06560547 3.55205078 3.06560547 4.8046875 4.1328125 C25.71715665 22.38664216 45.68087367 50.26962775 48.26171875 78.76953125 C48.31166752 80.18547037 48.34696293 81.60289397 48.32421875 83.01953125 C49.22140625 83.09429687 50.11859375 83.1690625 51.04296875 83.24609375 C71.0242419 85.35155848 88.20253016 93.8317412 103.32421875 107.01953125 C104.3090625 107.80585938 105.29390625 108.5921875 106.30859375 109.40234375 C118.71036499 120.165539 128.83652911 136.96626475 132.32421875 153.01953125 C132.59878906 154.05207031 132.87335938 155.08460938 133.15625 156.1484375 C135.07399174 164.12589288 135.60860187 171.71121265 135.63671875 179.89453125 C135.6421167 180.85705811 135.64751465 181.81958496 135.65307617 182.8112793 C135.59352394 188.80430505 134.88196442 194.23827715 133.32421875 200.01953125 C133.00324219 201.26734375 132.68226563 202.51515625 132.3515625 203.80078125 C127.9124219 218.94795634 121.12743863 232.37566346 110.32421875 244.01953125 C109.504375 244.93089844 108.68453125 245.84226562 107.83984375 246.78125 C98.20217981 257.00344682 87.35785642 264.11641548 74.38671875 269.45703125 C73.62560791 269.77502686 72.86449707 270.09302246 72.08032227 270.4206543 C59.28476241 275.37029484 46.0144173 276.48632622 32.421875 276.41796875 C30.96414546 276.41999863 29.50641693 276.42291758 28.0486908 276.42666626 C25.02772127 276.43103697 22.00702163 276.4248249 18.98608398 276.41064453 C15.13769165 276.39344684 11.28992244 276.40349327 7.44155216 276.42136192 C4.44475177 276.43225164 1.44809704 276.42873164 -1.54870796 276.42097855 C-2.96751546 276.41899642 -4.38633675 276.4213648 -5.8051281 276.42841721 C-18.07150483 276.47609758 -27.06557384 275.15758099 -36.30078125 266.58203125 C-37.08453125 265.73640625 -37.86828125 264.89078125 -38.67578125 264.01953125 C-39.35640625 263.31828125 -40.03703125 262.61703125 -40.73828125 261.89453125 C-47.22703752 252.26605421 -47.22063587 242.13659092 -47.06640625 230.9765625 C-47.06050992 229.53821434 -47.05643859 228.09985753 -47.05419922 226.66149902 C-47.03340354 221.38487711 -46.97755904 216.1084401 -46.92578125 210.83203125 C-46.84328125 199.01390625 -46.76078125 187.19578125 -46.67578125 175.01953125 C-72.08578125 175.01953125 -97.49578125 175.01953125 -123.67578125 175.01953125 C-123.51781719 198.54864842 -123.51781719 198.54864842 -123.31542969 222.07739258 C-123.29736328 226.66149902 -123.29736328 226.66149902 -123.29400635 228.81767273 C-123.28792397 230.30140503 -123.27398214 231.78511943 -123.253479 233.26872253 C-123.07732442 246.7044087 -124.63331952 256.87529902 -134.3125 266.85546875 C-144.3243031 276.02330167 -154.5971111 276.34186397 -167.69921875 276.35546875 C-169.16924157 276.36191368 -170.63926316 276.36864323 -172.10928345 276.37564087 C-175.18730632 276.38757719 -178.26521736 276.39132605 -181.34326172 276.39013672 C-184.4639422 276.38997495 -187.58403085 276.40374014 -190.70458984 276.43115234 C-211.77451814 276.61360442 -231.2943216 276.53003291 -250.67578125 267.01953125 C-252.07376953 266.34083984 -252.07376953 266.34083984 -253.5 265.6484375 C-260.23846804 262.18052299 -265.93503061 257.94017465 -271.67578125 253.01953125 C-272.48789062 252.3646875 -273.3 251.70984375 -274.13671875 251.03515625 C-291.65028007 236.33923414 -302.77780831 214.56904148 -305.67578125 192.01953125 C-305.96108715 187.55677495 -306.00095368 183.11536465 -305.98828125 178.64453125 C-306.00439453 177.5153125 -306.02050781 176.38609375 -306.03710938 175.22265625 C-306.05138151 150.27496215 -294.91270661 127.56336205 -277.67578125 110.01953125 C-261.32075698 94.62656723 -241.28101827 84.28752327 -218.67578125 83.01953125 C-218.66160156 82.39949219 -218.64742188 81.77945313 -218.6328125 81.140625 C-217.19667521 54.47504885 -200.02512117 30.10118045 -182.67578125 11.01953125 C-182.0621875 10.33375 -181.44859375 9.64796875 -180.81640625 8.94140625 C-171.40919122 -1.02465323 -159.51351725 -8.29421651 -147.67578125 -14.98046875 C-146.87269531 -15.45097656 -146.06960938 -15.92148438 -145.2421875 -16.40625 C-99.88712901 -41.22621962 -39.07132151 -32.74241324 0 0 Z M-169.73828125 37.58203125 C-175.36153362 44.53826809 -179.68925628 52.02868432 -183.67578125 60.01953125 C-184.5265625 61.72302734 -184.5265625 61.72302734 -185.39453125 63.4609375 C-189.50586076 72.67996465 -191.25390711 82.07936789 -192.85253906 92.00927734 C-194.89147402 104.11432194 -194.89147402 104.11432194 -200.44140625 108.375 C-203.73942634 109.32635195 -207.0211793 109.27524312 -210.42578125 109.33203125 C-230.46053933 110.10185034 -247.63604504 119.19807512 -261.4765625 133.44921875 C-276.10278628 150.54345543 -278.74121202 169.39805128 -277.67578125 191.01953125 C-277.20392091 195.03034416 -276.26657516 198.31663597 -274.67578125 202.01953125 C-274.42828125 202.6139502 -274.18078125 203.20836914 -273.92578125 203.82080078 C-266.07597098 222.27784888 -252.37109087 236.27888401 -233.67578125 244.01953125 C-223.4375768 247.45321841 -214.14117204 248.60823484 -203.31640625 248.515625 C-201.91013515 248.51578054 -200.50386363 248.51727857 -199.09759521 248.52003479 C-196.18660965 248.5214028 -193.27612655 248.50911547 -190.36523438 248.48608398 C-186.63613472 248.45738278 -182.90784716 248.46054303 -179.17868423 248.4731741 C-176.29104648 248.48011686 -173.40359724 248.47236354 -170.51598358 248.45991707 C-169.13967358 248.45541109 -167.76334334 248.4550583 -166.38703156 248.45898247 C-164.47576026 248.46188855 -162.56449264 248.44324969 -160.65332031 248.42358398 C-159.56827209 248.418181 -158.48322388 248.41277802 -157.36529541 248.4072113 C-154.72524043 248.22458899 -154.72524043 248.22458899 -153.03050423 246.91673946 C-150.9974977 244.06963584 -151.30540917 241.74796593 -151.31069946 238.27651978 C-151.30758047 237.58736398 -151.30446147 236.89820819 -151.30124795 236.18816888 C-151.29429061 233.87343718 -151.30865002 231.55932099 -151.32275391 229.24462891 C-151.32192332 227.5872943 -151.31970781 225.9299599 -151.31620789 224.27262878 C-151.31125292 220.70071217 -151.31536672 217.12895956 -151.32622147 213.55705643 C-151.34255398 207.90974378 -151.33413003 202.2626379 -151.32138062 196.61532593 C-151.29122991 181.57009649 -151.29272684 166.52490379 -151.31163347 151.47965944 C-151.32396071 141.59786354 -151.32212296 131.71630108 -151.29324567 121.83453214 C-151.27799282 116.22001664 -151.28552193 110.6061337 -151.30995584 104.9916575 C-151.32001916 101.49834118 -151.30934372 98.00531577 -151.29284096 94.51203346 C-151.28938608 92.89189341 -151.29450023 91.27170904 -151.30880928 89.65162849 C-151.32714073 87.43916904 -151.31476906 85.22890776 -151.29483032 83.01651001 C-151.2959614 81.77875132 -151.29709248 80.54099262 -151.29825783 79.26572609 C-150.38781703 74.51780733 -147.65829803 72.45514685 -143.86328125 69.70703125 C-139.58701207 68.36306094 -135.64692997 68.00374771 -131.63671875 70.0703125 C-127.05107746 73.26893883 -127.05107746 73.26893883 -125.67578125 76.01953125 C-125.55474444 78.26552341 -125.49827445 80.51508101 -125.47045898 82.76416016 C-125.4554099 83.82016953 -125.4554099 83.82016953 -125.4400568 84.89751244 C-125.40863069 87.1803392 -125.3838838 89.46318331 -125.359375 91.74609375 C-125.34097534 93.15389579 -125.32213887 94.56169219 -125.30285645 95.96948242 C-125.2343646 101.19443191 -125.17434012 106.41948961 -125.11328125 111.64453125 C-124.96890625 123.31828125 -124.82453125 134.99203125 -124.67578125 147.01953125 C-98.93578125 147.01953125 -73.19578125 147.01953125 -46.67578125 147.01953125 C-46.50535404 124.58191372 -46.50535404 124.58191372 -46.37792969 102.14404297 C-46.33251953 97.79125977 -46.33251953 97.79125977 -46.30621338 95.74954224 C-46.29165872 94.33236172 -46.28483014 92.91508838 -46.28424072 91.49783325 C-46.28181181 89.34282927 -46.25439203 87.18939778 -46.22167969 85.03466797 C-46.21279724 83.82221405 -46.20391479 82.60976013 -46.19476318 81.36056519 C-45.45038359 76.5684957 -43.21404854 73.47148294 -39.7265625 70.1796875 C-35.87783817 68.00240917 -31.93639309 68.1896268 -27.67578125 69.01953125 C-24.2462907 71.0365158 -21.4668484 73.43739695 -19.67578125 77.01953125 C-19.57572034 79.21715278 -19.54231022 81.417889 -19.53775024 83.61778259 C-19.53492896 84.30341154 -19.53210768 84.98904049 -19.52920091 85.69544607 C-19.52083587 88.00392522 -19.51951505 90.31235653 -19.51806641 92.62084961 C-19.51339966 94.27142981 -19.50825633 95.92200872 -19.50267029 97.57258606 C-19.49137853 101.13245969 -19.48294964 104.69232489 -19.47655106 108.25221062 C-19.46588875 113.87785352 -19.4456495 119.50343591 -19.4234314 125.12904358 C-19.36144486 141.12791174 -19.30745702 157.12677639 -19.27441406 173.12573242 C-19.25609316 181.95757013 -19.22719052 190.78930662 -19.18640935 199.62106997 C-19.16529911 204.29759137 -19.1498764 208.973985 -19.14760208 213.65055656 C-19.14546119 218.04760425 -19.12964944 222.44438576 -19.10321236 226.84135246 C-19.09599686 228.4574741 -19.09392923 230.07362792 -19.09731483 231.68976212 C-19.10119148 233.8915916 -19.08681516 236.09256334 -19.06777954 238.29429626 C-19.06281432 240.1445864 -19.06281432 240.1445864 -19.05774879 242.03225613 C-18.91826583 244.99640777 -18.91826583 244.99640777 -17.32105827 246.916049 C-14.79443254 248.61064912 -12.64960567 248.40115603 -9.63476562 248.40771484 C-8.3891687 248.41717133 -7.14357178 248.42662781 -5.86022949 248.43637085 C-4.49666021 248.43099644 -3.1330938 248.42484232 -1.76953125 248.41796875 C-0.36527353 248.4199913 1.03898317 248.42290424 2.4432373 248.42666626 C5.39227255 248.43109276 8.34103548 248.42465618 11.29003906 248.41064453 C15.04109045 248.39367785 18.79149188 248.4033109 22.54251862 248.42136192 C25.4476392 248.43229931 28.35261066 248.42870621 31.25773621 248.42097855 C32.63860656 248.41899729 34.0194911 248.42136162 35.40034485 248.42841721 C55.52303301 248.50857181 73.34621874 241.52346696 88.07421875 227.64453125 C102.6388797 212.21085711 108.1516581 193.79432072 107.6015625 173.015625 C106.92673471 157.98180585 100.27885412 144.18867551 90.32421875 133.01953125 C89.74285156 132.34535156 89.16148437 131.67117188 88.5625 130.9765625 C76.36129911 117.75220011 59.85074408 111.01707794 42.26171875 109.95703125 C41.27381348 109.92625488 40.2859082 109.89547852 39.26806641 109.86376953 C31.28886864 109.5020095 31.28886864 109.5020095 27.71484375 106.69921875 C24.48581498 103.07975186 23.99893739 99.665451 23.32421875 95.01953125 C19.88391987 73.49986858 12.78306868 53.72472329 -1.67578125 37.01953125 C-2.31644531 36.23578125 -2.95710938 35.45203125 -3.6171875 34.64453125 C-20.25681894 15.03244262 -46.85942227 0.14917289 -72.67578125 -1.98046875 C-111.00817478 -4.5187752 -144.20746951 8.41525252 -169.73828125 37.58203125 Z " fill="#4F90D2" transform="translate(426.67578125,179.98046875)"/>
<path d="M0 0 C0.73511307 0.00359528 1.47022614 0.00719055 2.22761536 0.01089478 C2.99829346 0.01074875 3.76897156 0.01060272 4.56300354 0.01045227 C7.12237823 0.01115157 9.68168104 0.01894471 12.24104309 0.02676392 C14.01081299 0.02862804 15.7805834 0.03005197 17.550354 0.03105164 C22.2176505 0.03487728 26.88491607 0.04470796 31.55220032 0.05575562 C37.14721284 0.0677631 42.74223568 0.07237175 48.33725739 0.07820892 C56.84557207 0.0879197 65.35381886 0.10707592 73.86213684 0.12442017 C73.86213684 24.87442017 73.86213684 49.62442017 73.86213684 75.12442017 C73.53213684 75.12442017 73.20213684 75.12442017 72.86213684 75.12442017 C72.86213684 51.03442017 72.86213684 26.94442017 72.86213684 2.12442017 C47.45213684 2.12442017 22.04213684 2.12442017 -4.13786316 2.12442017 C-3.9798991 25.65353734 -3.9798991 25.65353734 -3.7775116 49.18228149 C-3.75944519 53.76638794 -3.75944519 53.76638794 -3.75608826 55.92256165 C-3.75000588 57.40629395 -3.73606405 58.89000835 -3.71556091 60.37361145 C-3.59419382 69.63053836 -4.06945288 77.58821152 -8.13786316 86.12442017 C-8.46786316 86.12442017 -8.79786316 86.12442017 -9.13786316 86.12442017 C-9.18058416 84.45830111 -9.17850148 82.79059132 -9.13786316 81.12442017 C-8.64286316 80.62942017 -8.64286316 80.62942017 -8.13786316 80.12442017 C-7.34757493 74.95870581 -7.00124416 69.94612701 -6.94841003 64.71450806 C-6.94011673 64.02244263 -6.93182343 63.3303772 -6.92327881 62.61734009 C-6.90602947 61.13165999 -6.8908232 59.64595497 -6.87750244 58.16023445 C-6.85628832 55.81110554 -6.8292903 53.46210397 -6.80082703 51.11305237 C-6.73138389 45.28866024 -6.67139432 39.46417893 -6.61180115 33.63967896 C-6.56094774 28.69729661 -6.50620397 23.75498912 -6.44598389 18.81271172 C-6.41936898 16.49436006 -6.3985926 14.17600136 -6.37797546 11.85758972 C-6.3613845 10.44791316 -6.34451374 9.03823985 -6.32731628 7.62857056 C-6.30852417 5.77613487 -6.30852417 5.77613487 -6.28935242 3.88627625 C-6.03099247 -0.82397847 -4.24704768 0.00876494 0 0 Z " fill="#77A0C5" transform="translate(307.1378631591797,352.8755798339844)"/>
<path d="M0 0 C1.73828125 1.5234375 1.73828125 1.5234375 3 3 C1.78763672 2.93039063 1.78763672 2.93039063 0.55078125 2.859375 C-6.02453893 2.54971395 -6.02453893 2.54971395 -12.125 4.625 C-15.8268642 9.31402799 -16.24993496 14.12968471 -16.2515564 19.95864868 C-16.25452654 20.63473911 -16.25749667 21.31082953 -16.26055682 22.00740755 C-16.26816019 24.25974611 -16.26171811 26.51182107 -16.25537109 28.76416016 C-16.25812262 30.38415198 -16.2618035 32.00414245 -16.26634216 33.62413025 C-16.27443978 37.10592091 -16.2766263 40.58764741 -16.27439499 44.06944656 C-16.27155887 49.57388801 -16.28592367 55.07820143 -16.30337524 60.58261108 C-16.35037791 76.23246353 -16.37435305 91.88230664 -16.38085938 107.53222656 C-16.38460661 116.18063045 -16.40260517 124.82888889 -16.43595374 133.47723043 C-16.45619515 138.95058638 -16.45852525 144.42356798 -16.44767356 149.89694619 C-16.44507081 153.29841988 -16.45904823 156.6996744 -16.47775459 160.10109138 C-16.4830871 161.67971435 -16.48156172 163.25837742 -16.47271919 164.83698463 C-16.46162883 166.9902891 -16.47499058 169.14210548 -16.49447632 171.2953186 C-16.49556585 172.50060526 -16.49665539 173.70589191 -16.49777794 174.94770241 C-17.10063539 178.6116202 -18.05768094 179.79927079 -21 182 C-23.92607117 182.44978333 -23.92607117 182.44978333 -27.36987305 182.37817383 C-28.66189133 182.36107864 -29.95390961 182.34398346 -31.28507996 182.32637024 C-32.69397486 182.28713631 -34.10285426 182.24734254 -35.51171875 182.20703125 C-36.96414721 182.17963671 -38.41660823 182.15392113 -39.86909485 182.12980652 C-43.69499895 182.06123901 -47.51991194 181.96758304 -51.34515381 181.86938477 C-54.44725917 181.79404896 -57.54957059 181.7367914 -60.65207195 181.6805315 C-64.37625757 181.6124942 -68.10024499 181.53573023 -71.82421875 181.45703125 C-72.52498724 181.44256266 -73.22575573 181.42809406 -73.94775963 181.41318703 C-81.35661309 181.25294072 -88.65091215 180.97553369 -96 180 C-96 179.34 -96 178.68 -96 178 C-96.55945313 177.88785156 -97.11890625 177.77570313 -97.6953125 177.66015625 C-106.24287423 175.55762097 -112.8436919 170.91867286 -120 166 C-119.505 165.01 -119.505 165.01 -119 164 C-117.74509766 164.88751953 -117.74509766 164.88751953 -116.46484375 165.79296875 C-104.98818177 173.66953398 -92.7663989 179.09700496 -78.58911133 179.14526367 C-77.31461624 179.15164352 -76.04012115 179.15802338 -74.727005 179.16459656 C-73.34534747 179.16612465 -71.96368943 179.16723892 -70.58203125 179.16796875 C-69.15907254 179.17118358 -67.73611415 179.17454783 -66.31315613 179.17805481 C-63.33840162 179.18402883 -60.3636761 179.18589628 -57.38891602 179.18530273 C-53.5721657 179.18520072 -49.75559979 179.19890052 -45.93889332 179.21607494 C-43.00415689 179.22717087 -40.06946557 179.22922276 -37.13471031 179.22869301 C-35.72685798 179.22987493 -34.31900455 179.23430857 -32.91117287 179.24202538 C-30.94837451 179.25178452 -28.98552189 179.24769358 -27.02270508 179.24291992 C-25.9052742 179.24434494 -24.78784332 179.24576996 -23.6365509 179.24723816 C-20.84273821 179.26807158 -20.84273821 179.26807158 -19 177 C-18.69524586 173.98608185 -18.69524586 173.98608185 -18.7484436 170.37724304 C-18.74547346 169.68894167 -18.74250333 169.0006403 -18.73944318 168.29148132 C-18.73177475 165.97377845 -18.73830873 163.65632689 -18.74462891 161.33862305 C-18.74188032 159.68143542 -18.73820122 158.02424911 -18.73365784 156.36706543 C-18.72553198 152.79244394 -18.72338086 149.21788506 -18.72560501 145.64325523 C-18.7284319 139.99183898 -18.71410921 134.34054838 -18.69662476 128.68916321 C-18.64953898 112.61676935 -18.62565678 96.54438355 -18.61914062 80.47192383 C-18.61539173 71.59977217 -18.59737455 62.72776217 -18.56404626 53.85567123 C-18.54380574 48.23708449 -18.54147514 42.61886244 -18.55232644 37.00025403 C-18.55493164 33.50367861 -18.54093862 30.00731592 -18.52224541 26.51079559 C-18.51691793 24.88905678 -18.51842972 23.26727891 -18.52728081 21.6455555 C-18.53839204 19.43109664 -18.52498421 17.21807864 -18.50552368 15.00370789 C-18.50443415 13.76465037 -18.50334461 12.52559286 -18.50222206 11.24898815 C-17.90392269 7.37845416 -16.72042342 5.76525336 -14 3 C-9.1874322 -0.17191969 -5.59815632 -0.55063833 0 0 Z " fill="#5C88B7" transform="translate(293,248)"/>
<path d="M0 0 C0.33 0 0.66 0 1 0 C1.00331015 0.86398344 1.00662029 1.72796688 1.01003075 2.61813164 C1.09115872 23.61541789 1.18321737 44.61263121 1.28752708 65.6098156 C1.33770478 75.76378744 1.38414699 85.91775099 1.421875 96.07177734 C1.45475808 104.91932479 1.49456868 113.7668089 1.54279006 122.61428654 C1.56809182 127.30139667 1.58986212 131.98846458 1.60334396 136.67562485 C1.61613111 141.08327189 1.63814889 145.49077443 1.66738319 149.89834213 C1.67648528 151.51971886 1.68215529 153.14111887 1.68421364 154.76251984 C1.68751773 156.969033 1.70294388 159.17513184 1.7215271 161.38156128 C1.72705786 162.61860746 1.73258862 163.85565365 1.73828697 165.13018608 C1.70319786 168.12984216 1.70319786 168.12984216 4 170 C6.71399711 170.30739356 6.71399711 170.30739356 9.92749023 170.25878906 C11.79599892 170.26824554 11.79599892 170.26824554 13.70225525 170.27789307 C15.07103617 170.27430987 16.43981581 170.27020706 17.80859375 170.265625 C19.21427986 170.26697294 20.61996551 170.26891456 22.02565002 170.27142334 C24.98060519 170.27437722 27.93543971 170.27007441 30.89038086 170.26074219 C34.649183 170.24944146 38.40769655 170.25584506 42.16648769 170.26788712 C45.07587276 170.27517957 47.98519166 170.27278266 50.89457893 170.26763153 C52.27823992 170.26631041 53.66190721 170.26788794 55.04556084 170.27259064 C63.25766449 170.29434457 70.98027898 169.82765252 79 168 C79.33 168.66 79.66 169.32 80 170 C71.80680319 172.28257715 63.78907292 172.30990833 55.3515625 172.30078125 C53.84703454 172.30467456 52.34250766 172.30901053 50.83798218 172.31376648 C47.70298677 172.32118663 44.56810413 172.32096548 41.43310547 172.31567383 C37.41468712 172.30984499 33.3967246 172.32691184 29.37838173 172.3500185 C26.27974755 172.36472889 23.18122439 172.36563194 20.08256149 172.36250877 C18.60017357 172.36302205 17.11777945 172.36826095 15.63542557 172.37832069 C13.56995744 172.39063372 11.50539459 172.38392874 9.43994141 172.37231445 C8.26573639 172.37294388 7.09153137 172.3735733 5.88174438 172.3742218 C3 172 3 172 1.3424387 170.90015221 C-0.67758291 168.04091661 -0.36848882 165.69714163 -0.36076355 162.2233429 C-0.36332682 161.53065927 -0.3658901 160.83797565 -0.36853105 160.12430161 C-0.37348158 157.79788331 -0.35695579 155.47211069 -0.34057617 153.14575195 C-0.33973017 151.48030615 -0.34020451 149.81485922 -0.34190369 148.14941406 C-0.34276612 143.622779 -0.32510029 139.09638135 -0.30418181 134.56980157 C-0.2854563 129.84123954 -0.28366783 125.11267236 -0.28010559 120.38407898 C-0.27077298 111.42742814 -0.24614276 102.47088686 -0.21605712 93.51428431 C-0.18255093 83.31853541 -0.16603662 73.12278134 -0.15097082 62.92699111 C-0.11959425 41.9512662 -0.06681014 20.97564 0 0 Z " fill="#6694BE" transform="translate(407,257)"/>
<path d="M0 0 C0.99 0.99 0.99 0.99 2 2 C-4.52836164 10.27065752 -11.33460085 16.27204764 -22 18 C-27.00590617 18.31304253 -32.00944686 18.33073114 -37.0234375 18.3359375 C-38.49346032 18.34238243 -39.96348191 18.34911198 -41.4335022 18.35610962 C-44.51152507 18.36804594 -47.58943611 18.3717948 -50.66748047 18.37060547 C-53.78816095 18.3704437 -56.9082496 18.38420889 -60.02880859 18.41162109 C-81.19316276 18.59486426 -100.47960363 18.38480595 -120 9 C-120.680625 8.67515625 -121.36125 8.3503125 -122.0625 8.015625 C-123.38617529 7.36604361 -124.69599807 6.68822324 -126 6 C-124.44921875 5.296875 -124.44921875 5.296875 -122 5 C-118.89352336 6.25290873 -115.95504699 7.65611996 -112.98632812 9.19921875 C-100.57591612 15.13945568 -86.07247014 15.46450252 -72.5625 15.3984375 C-71.06135925 15.40046764 -69.56021947 15.40338679 -68.05908203 15.40713501 C-64.94993475 15.41150343 -61.84104986 15.40530058 -58.73193359 15.39111328 C-54.77035505 15.37390372 -50.80938131 15.3839709 -46.8478241 15.40183067 C-43.76266995 15.41271655 -40.67765739 15.40920232 -37.59249878 15.4014473 C-36.13182501 15.39946473 -34.67113784 15.40183515 -33.21047974 15.40888596 C-25.31851498 15.43868103 -18.31898061 15.2516675 -11 12 C-10.67 11.34 -10.34 10.68 -10 10 C-8.8553125 9.3503125 -8.8553125 9.3503125 -7.6875 8.6875 C-4.13947602 6.45967099 -1.87087322 3.74174643 0 0 Z " fill="#6B98BF" transform="translate(296,438)"/>
<path d="M0 0 C41.77979746 -0.68028227 76.29323426 9.02571648 107.15234375 38.2109375 C111.30123677 42.27446235 115.43812067 46.40373652 119 51 C119 51.66 119 52.32 119 53 C117 53 117 53 115.34375 51.390625 C114.7353125 50.68421875 114.126875 49.9778125 113.5 49.25 C112.8915625 48.55390625 112.283125 47.8578125 111.65625 47.140625 C110.12023037 45.15539208 109.0276034 43.28127955 108 41 C107.01 41 106.02 41 105 41 C104.401875 40.0925 103.80375 39.185 103.1875 38.25 C100.79451681 34.69471069 98.63349924 33.19523913 95 31 C92.625 29.375 92.625 29.375 91 28 C91 27.34 91 26.68 91 26 C90.443125 25.9175 89.88625 25.835 89.3125 25.75 C87 25 87 25 84.828125 23.19921875 C81.53848294 20.64111311 78.17075181 18.87962866 74.4375 17.0625 C73.73077148 16.71550049 73.02404297 16.36850098 72.29589844 16.01098633 C48.93132522 4.64836428 25.74427251 1.62858672 0 1 C0 0.67 0 0.34 0 0 Z " fill="#6392BC" transform="translate(330,151)"/>
<path d="M0 0 C7.04158408 7.04158408 6.37347674 24.83238736 6.375 34.1875 C6.3764502 35.13004639 6.37790039 36.07259277 6.37939453 37.04370117 C6.28627712 42.9346851 5.51803299 48.31402268 4 54 C3.67902344 55.2478125 3.35804688 56.495625 3.02734375 57.78125 C0.81184661 65.34093917 -1.88326111 72.27293892 -5.5625 79.25 C-5.93834229 79.96478516 -6.31418457 80.67957031 -6.70141602 81.41601562 C-8.74659348 85.15259561 -10.76109657 88.15035254 -14 91 C-14 89.35 -14 87.7 -14 86 C-13.01 86 -12.02 86 -11 86 C-10.87020752 85.41081787 -10.74041504 84.82163574 -10.60668945 84.21459961 C-9.65978954 80.75812913 -7.8489908 77.71907016 -6.1875 74.5625 C-0.65861506 63.79539994 3.12003231 52.85483808 3.1328125 40.640625 C3.13410156 39.44179688 3.13539063 38.24296875 3.13671875 37.0078125 C3.13091797 35.14769531 3.13091797 35.14769531 3.125 33.25 C3.12886719 32.02539062 3.13273438 30.80078125 3.13671875 29.5390625 C3.12932113 22.62968654 2.87147087 15.85662955 2 9 C1.01 8.67 0.02 8.34 -1 8 C-0.67 5.36 -0.34 2.72 0 0 Z " fill="#6694BE" transform="translate(556,326)"/>
<path d="M0 0 C1.65 0 3.3 0 5 0 C5.33 0.99 5.66 1.98 6 3 C8.00016466 4.20882096 8.00016466 4.20882096 10 5 C10 5.66 10 6.32 10 7 C10.53625 7.226875 11.0725 7.45375 11.625 7.6875 C17.91370188 11.16283525 24.56210373 17.16496869 26.66796875 24.24609375 C26.77753906 24.82488281 26.88710938 25.40367187 27 26 C27.66 26 28.32 26 29 26 C30.32260016 29.20426067 31.63123671 32.41404853 32.9375 35.625 C33.49727539 36.98044922 33.49727539 36.98044922 34.06835938 38.36328125 C37.42370636 46.64584948 38.16196947 53.68366545 38.125 62.5625 C38.13080078 63.96145508 38.13080078 63.96145508 38.13671875 65.38867188 C38.13542969 66.29294922 38.13414062 67.19722656 38.1328125 68.12890625 C38.13168457 68.94431885 38.13055664 69.75973145 38.12939453 70.59985352 C37.99213878 73.14581827 37.55657839 75.51474209 37 78 C35 76 35 76 34.82055664 73.66845703 C34.85012451 72.70794434 34.87969238 71.74743164 34.91015625 70.7578125 C34.93013672 69.69046875 34.95011719 68.623125 34.97070312 67.5234375 C35.03084967 65.29673556 35.0957778 63.07015647 35.16601562 60.84375 C35.46096358 43.79779247 29.31266985 28.71401409 18 16 C17.46890625 15.38769531 16.9378125 14.77539062 16.390625 14.14453125 C12.20863039 9.63395135 7.44714709 6.59004479 2.16015625 3.48046875 C1.44730469 2.99191406 0.73445313 2.50335938 0 2 C0 1.34 0 0.68 0 0 Z " fill="#608FBE" transform="translate(498,297)"/>
<path d="M0 0 C0 0.66 0 1.32 0 2 C-1.81302797 1.71163345 -3.6253932 1.41909973 -5.4375 1.125 C-6.95150391 0.88136719 -6.95150391 0.88136719 -8.49609375 0.6328125 C-10.33552454 0.30060761 -12.17533406 -0.04421037 -13.98779297 -0.5012207 C-34.97136278 -5.77205401 -58.50334553 -1.94479643 -77.91796875 7.08203125 C-80 8 -80 8 -82 8 C-82 7.34 -82 6.68 -82 6 C-71.07725329 1.43321586 -60.75568106 -2.20839562 -49 -4 C-47.33324219 -4.27457031 -47.33324219 -4.27457031 -45.6328125 -4.5546875 C-29.97886547 -6.47355843 -15.04890481 -4.43749757 0 0 Z " fill="#5E8DBC" transform="translate(375,181)"/>
<path d="M0 0 C1.423125 0.804375 1.423125 0.804375 2.875 1.625 C3.85146484 2.17220703 3.85146484 2.17220703 4.84765625 2.73046875 C7 4 7 4 9.05859375 5.42578125 C26.11502469 16.8657098 46.09174683 15.70319992 65.72906494 15.4598999 C68.7035809 15.42972973 71.67788469 15.42627118 74.65253353 15.42332363 C77.52729695 15.41890403 80.40191346 15.40362655 83.27661324 15.3844471 C84.64454517 15.37559376 86.0124925 15.36884983 87.38044548 15.36428642 C89.27706311 15.35525702 91.17359127 15.3311877 93.07006836 15.30639648 C94.14606796 15.29575668 95.22206757 15.28511688 96.33067322 15.27415466 C99.22566441 15.18668211 99.22566441 15.18668211 102 13 C100.125 16.875 100.125 16.875 99 18 C96.9914043 18.06970109 94.98028641 18.06742946 92.97070312 18.03759766 C91.67845825 18.02072906 90.38621338 18.00386047 89.05480957 17.98648071 C87.63028577 17.96257541 86.20576598 17.93842987 84.78125 17.9140625 C83.32450831 17.8922897 81.86776176 17.87084031 80.41101074 17.84970093 C77.34751395 17.80409931 74.28410181 17.75488953 71.22070312 17.703125 C67.31500175 17.63736327 63.40923361 17.57987415 59.50336456 17.52509499 C56.48851234 17.48196417 53.47373756 17.43460582 50.45896912 17.38599777 C49.02064389 17.3632542 47.58229883 17.3417285 46.14393616 17.32149124 C38.69723792 17.21417462 31.38450369 16.99578913 24 16 C24 15.34 24 14.68 24 14 C23.44054687 13.88785156 22.88109375 13.77570313 22.3046875 13.66015625 C16.32308548 12.18879755 11.51369419 9.73944849 6.375 6.4375 C5.74706543 6.03732666 5.11913086 5.63715332 4.47216797 5.22485352 C2.9398034 4.21014524 1.46369126 3.11147737 0 2 C0 1.34 0 0.68 0 0 Z " fill="#6996C0" transform="translate(173,412)"/>
<path d="M0 0 C2 0 2 0 3.48828125 1.24609375 C5.08802712 3.10212966 6.11471886 4.86350417 7.1875 7.0625 C7.53167969 7.75472656 7.87585938 8.44695312 8.23046875 9.16015625 C9 11 9 11 9 13 C9.66 13 10.32 13 11 13 C17.67506521 29.36811203 23.45023516 45.16013094 24 63 C25.485 63.495 25.485 63.495 27 64 C26.67 64.99 26.34 65.98 26 67 C21.94497601 62.83761285 21.27777866 59.06867738 20.6875 53.5 C18.29980026 35.75811245 12.20429808 18.03482337 1.234375 3.69140625 C0 2 0 2 0 0 Z " fill="#608FBC" transform="translate(428,220)"/>
<path d="M0 0 C0.66 0.33 1.32 0.66 2 1 C1.66226563 1.72445313 1.32453125 2.44890625 0.9765625 3.1953125 C-6.42557281 19.24040349 -9.65562249 38.69423428 -3.80078125 55.92578125 C-3.53652344 56.61027344 -3.27226562 57.29476562 -3 58 C-2.608125 59.216875 -2.21625 60.43375 -1.8125 61.6875 C-1.544375 62.450625 -1.27625 63.21375 -1 64 C-3.38671875 62.9296875 -3.38671875 62.9296875 -6 61 C-11.81334526 45.4845188 -11.23668513 23.55268705 -4.46484375 8.61328125 C-3.03596341 5.70485106 -1.55681555 2.84156624 0 0 Z " fill="#6B98C0" transform="translate(156,324)"/>
<path d="M0 0 C0.66 0.66 1.32 1.32 2 2 C1.49210937 2.83660156 0.98421875 3.67320312 0.4609375 4.53515625 C-7.93213867 18.59801235 -12.56492299 31.92367164 -15.2644043 48.07714844 C-15.44914307 49.15770508 -15.63388184 50.23826172 -15.82421875 51.3515625 C-15.97979248 52.31916504 -16.13536621 53.28676758 -16.2956543 54.28369141 C-17.07400612 57.28540452 -18.23790379 59.45927627 -20 62 C-20.33 62 -20.66 62 -21 62 C-21 60.35 -21 58.7 -21 57 C-20.34 57 -19.68 57 -19 57 C-18.86722656 55.71222656 -18.73445312 54.42445313 -18.59765625 53.09765625 C-18.41950101 51.41924638 -18.24110308 49.74086227 -18.0625 48.0625 C-17.97548828 47.21236328 -17.88847656 46.36222656 -17.79882812 45.48632812 C-17.71181641 44.67744141 -17.62480469 43.86855469 -17.53515625 43.03515625 C-17.456604 42.2862915 -17.37805176 41.53742676 -17.29711914 40.76586914 C-17 39 -17 39 -16 38 C-15.76924918 36.65252916 -15.58846937 35.29622435 -15.4375 33.9375 C-15.293125 32.638125 -15.14875 31.33875 -15 30 C-14.34 30 -13.68 30 -13 30 C-12.7525 28.741875 -12.505 27.48375 -12.25 26.1875 C-11.02166198 20.59767191 -9.05312625 15.33214826 -7 10 C-6.34 10 -5.68 10 -5 10 C-4.690625 9.05125 -4.38125 8.1025 -4.0625 7.125 C-3 4 -3 4 -2 2 C-1.34 2 -0.68 2 0 2 C0 1.34 0 0.68 0 0 Z " fill="#5E8FBD" transform="translate(250,224)"/>
<path d="M0 0 C11.61413311 3.59361069 20.92364039 10.08440749 30 18 C30.97710938 18.77085937 31.95421875 19.54171875 32.9609375 20.3359375 C36.37553386 23.17459762 39.00118574 26.48337042 41.6875 30 C42.15994141 30.60328125 42.63238281 31.2065625 43.11914062 31.828125 C50 40.70665323 50 40.70665323 50 44 C49.34 44 48.68 44 48 44 C46.848238 42.35844231 45.77865539 40.65887603 44.75 38.9375 C42.55201795 35.36174723 40.35715266 32.07069728 37.5625 28.9375 C35 26 35 26 35 24 C34.4225 23.74347656 33.845 23.48695313 33.25 23.22265625 C30.04164067 21.47922488 27.64834201 19.04658692 25 16.55859375 C22.94457081 14.95680421 21.54442895 14.41460561 19 14 C19 13.01 19 12.02 19 11 C18.32582031 10.74476563 17.65164063 10.48953125 16.95703125 10.2265625 C13.44867244 8.77131195 10.07321448 7.09052165 6.6875 5.375 C5.71973633 4.88773437 5.71973633 4.88773437 4.73242188 4.390625 C3.15402459 3.59558044 1.57688306 2.79804366 0 2 C0 1.34 0 0.68 0 0 Z " fill="#6391BD" transform="translate(500,269)"/>
<path d="M0 0 C0.33 0 0.66 0 1 0 C0.125 7.625 0.125 7.625 -1 11 C-1.66 11 -2.32 11 -3 11 C-3.06058594 11.70125 -3.12117188 12.4025 -3.18359375 13.125 C-3.26738281 14.07375 -3.35117188 15.0225 -3.4375 16 C-3.51871094 16.928125 -3.59992188 17.85625 -3.68359375 18.8125 C-3.90440257 21.03694436 -4.18107969 23.25624032 -4.5 25.46875 C-5.30459953 31.77933459 -5.36560894 38.14784265 -5.5625 44.5 C-5.60568359 45.799375 -5.64886719 47.09875 -5.69335938 48.4375 C-5.7988251 51.62490845 -5.90094448 54.81238698 -6 58 C-9.13537403 52.7754168 -8.32843108 46.97292939 -8.3125 41.0625 C-8.32861328 39.90169922 -8.34472656 38.74089844 -8.36132812 37.54492188 C-8.36746297 26.52061245 -6.15934533 16.48041048 -2.3125 6.1875 C-1.87550781 5.00542969 -1.43851562 3.82335937 -0.98828125 2.60546875 C-0.66214844 1.74566406 -0.33601562 0.88585937 0 0 Z " fill="#5C8FBE" transform="translate(129,318)"/>
<path d="M0 0 C-0.33 1.32 -0.66 2.64 -1 4 C-1.928125 4.12375 -1.928125 4.12375 -2.875 4.25 C-5.1439166 4.77161212 -5.1439166 4.77161212 -5.86328125 6.765625 C-9.02983752 12.98992117 -15.63640231 17.70912185 -21 22 C-22.37368345 23.63356951 -23.71937515 25.2925002 -25 27 C-25.66 26.67 -26.32 26.34 -27 26 C-5.03883495 0 -5.03883495 0 0 0 Z " fill="#6091C2" transform="translate(259,179)"/>
<path d="M0 0 C19.10841121 -0.31113395 36.59052545 0.55121874 55 6 C55 6.33 55 6.66 55 7 C47.73768737 6.50445396 40.72298517 5.22027142 33.61328125 3.71875 C26.08421909 2.22107709 18.71649693 1.72731615 11.0625 1.4375 C9.99708984 1.39431641 8.93167969 1.35113281 7.83398438 1.30664062 C5.22276557 1.20125511 2.61146254 1.09912912 0 1 C0 0.67 0 0.34 0 0 Z " fill="#5A8CBE" transform="translate(330,151)"/>
<path d="M0 0 C1.423125 0.804375 1.423125 0.804375 2.875 1.625 C3.85146484 2.17220703 3.85146484 2.17220703 4.84765625 2.73046875 C7 4 7 4 9.05859375 5.42578125 C16.48707115 10.40813958 24.45908804 12.34516724 33.05224609 14.40917969 C35 15 35 15 39 17 C34.05 16.67 29.1 16.34 24 16 C24 15.34 24 14.68 24 14 C23.44054687 13.88785156 22.88109375 13.77570313 22.3046875 13.66015625 C16.32308548 12.18879755 11.51369419 9.73944849 6.375 6.4375 C5.74706543 6.03732666 5.11913086 5.63715332 4.47216797 5.22485352 C2.9398034 4.21014524 1.46369126 3.11147737 0 2 C0 1.34 0 0.68 0 0 Z " fill="#6190BB" transform="translate(173,412)"/>
<path d="M0 0 C0.33 0 0.66 0 1 0 C1.13535156 0.680625 1.27070312 1.36125 1.41015625 2.0625 C2.84004923 8.50129952 4.8486025 14.4192375 7.5 20.4375 C7.79656494 21.11103516 8.09312988 21.78457031 8.39868164 22.47851562 C10.05060416 26.13787815 11.85515169 29.6061699 14 33 C13.01 33.495 13.01 33.495 12 34 C-1.86226703 11.67590247 -1.86226703 11.67590247 -0.62109375 2.06640625 C-0.41613281 1.38449219 -0.21117188 0.70257813 0 0 Z " fill="#6493C0" transform="translate(124,378)"/>
<path d="M0 0 C0 3 0 3 -1.43359375 4.4375 C-2.42552734 5.2109375 -2.42552734 5.2109375 -3.4375 6 C-9.13636818 10.77445285 -15.35638357 16.74099393 -18.0703125 23.7734375 C-18.37710938 24.50820313 -18.68390625 25.24296875 -19 26 C-19.99 26.33 -20.98 26.66 -22 27 C-22 27.66 -22 28.32 -22 29 C-22.66 28.67 -23.32 28.34 -24 28 C-17.4571436 17.46759701 -9.74864228 7.7335598 0 0 Z " fill="#6492BD" transform="translate(157,283)"/>
<path d="M0 0 C4.52727838 0.29525729 7.63002483 1.20126351 11.625 3.375 C17.47381705 6.48895352 23.53273927 7.75317701 30 9 C30 9.66 30 10.32 30 11 C19.11705753 10.44663004 9.53066575 6.04564657 0 1 C0 0.67 0 0.34 0 0 Z " fill="#6595C0" transform="translate(170,443)"/>
<path d="M0 0 C0.33 0 0.66 0 1 0 C1.10957031 1.17175781 1.21914062 2.34351563 1.33203125 3.55078125 C2.19594081 12.29041801 3.23603241 20.61941379 6 29 C6.391875 30.216875 6.78375 31.43375 7.1875 32.6875 C7.455625 33.450625 7.72375 34.21375 8 35 C5.61328125 33.94921875 5.61328125 33.94921875 3 32 C2.10040656 29.46087448 1.57938937 27.43218503 1.1875 24.8125 C1.06914795 24.11576172 0.9507959 23.41902344 0.82885742 22.70117188 C-0.33701444 15.14625458 -0.27358301 7.61979356 0 0 Z " fill="#578ABB" transform="translate(147,353)"/>
<path d="M0 0 C0.33 0 0.66 0 1 0 C0.71977611 5.60447774 -0.19520989 9.80319812 -2.5 14.9375 C-4.9056193 20.33801133 -5.85670354 25.11181813 -6 31 C-6.66 31 -7.32 31 -8 31 C-7.74631762 19.90716143 -4.16578003 10.19162928 0 0 Z " fill="#6693C0" transform="translate(216,232)"/>
<path d="M0 0 C1.74609375 1.51953125 1.74609375 1.51953125 3 3 C1.78763672 2.93039063 1.78763672 2.93039063 0.55078125 2.859375 C-6.02453893 2.54971395 -6.02453893 2.54971395 -12.125 4.625 C-14.25591031 7.32415306 -15.16953471 9.67813884 -16 13 C-16.66 12.67 -17.32 12.34 -18 12 C-17.58443583 7.15175132 -15.62551755 5.11963138 -12 2 C-8.23915487 -0.72337061 -4.47745587 -0.35535364 0 0 Z " fill="#638EB9" transform="translate(293,248)"/>
<path d="M0 0 C0.66 0.33 1.32 0.66 2 1 C-2.90570413 4.14125469 -7.86603949 7.07093764 -13.01953125 9.7890625 C-15.06847025 10.90856814 -15.06847025 10.90856814 -16.51171875 12.7109375 C-17.00285156 13.13632813 -17.49398438 13.56171875 -18 14 C-20.1875 13.6875 -20.1875 13.6875 -22 13 C-6.23616236 2.63837638 -6.23616236 2.63837638 0 0 Z " fill="#6693BE" transform="translate(285,162)"/>
<path d="M0 0 C0.80571924 2.32109244 1.13776005 3.58594271 0.35083008 5.95117188 C-0.00599854 6.61697266 -0.36282715 7.28277344 -0.73046875 7.96875 C-1.12169922 8.70480469 -1.51292969 9.44085938 -1.91601562 10.19921875 C-2.54540039 11.33810547 -2.54540039 11.33810547 -3.1875 12.5 C-3.58775391 13.25925781 -3.98800781 14.01851563 -4.40039062 14.80078125 C-6.53447669 18.75074282 -8.5570861 22.02405603 -12 25 C-12 23.35 -12 21.7 -12 20 C-11.01 20 -10.02 20 -9 20 C-8.87310791 19.42024414 -8.74621582 18.84048828 -8.61547852 18.24316406 C-8.00352996 16.01286525 -7.19815816 14.16780336 -6.15234375 12.109375 C-5.79462891 11.40039062 -5.43691406 10.69140625 -5.06835938 9.9609375 C-4.69517578 9.23132813 -4.32199219 8.50171875 -3.9375 7.75 C-3.37192383 6.63238281 -3.37192383 6.63238281 -2.79492188 5.4921875 C-1.86689327 3.65962469 -0.93392821 1.82956324 0 0 Z " fill="#5E8DBB" transform="translate(554,392)"/>
<path d="M0 0 C0.66 0 1.32 0 2 0 C3.33203125 1.609375 3.33203125 1.609375 4.8125 3.75 C9.39037519 10.00459093 13.7647651 12.547378 21 15 C19.24609375 16.12890625 19.24609375 16.12890625 17 17 C9.91777578 14.3952058 4.32560077 7.92767513 0 2 C0 1.34 0 0.68 0 0 Z " fill="#6492BE" transform="translate(384,437)"/>
<path d="M0 0 C-1.35931641 0.56267578 -1.35931641 0.56267578 -2.74609375 1.13671875 C-9.15507949 3.8210046 -15.31909193 6.51882038 -21.23046875 10.21484375 C-23 11 -23 11 -26 10 C-6.57250964 -2.50752145 -6.57250964 -2.50752145 0 0 Z " fill="#6A96C1" transform="translate(190,268)"/>
<path d="M0 0 C0 3 0 3 -1.22167969 4.578125 C-1.78274414 5.12984375 -2.34380859 5.6815625 -2.921875 6.25 C-3.53546875 6.8584375 -4.1490625 7.466875 -4.78125 8.09375 C-5.4309375 8.7228125 -6.080625 9.351875 -6.75 10 C-7.70132813 10.94359375 -7.70132813 10.94359375 -8.671875 11.90625 C-16.9028072 20 -16.9028072 20 -20 20 C-18.83608779 16.50826337 -17.98186738 16.02569424 -15.0625 13.9375 C-9.52669034 9.79009276 -4.79147333 4.9715287 0 0 Z " fill="#D9EDF5" transform="translate(539,421)"/>
<path d="M0 0 C3.61681834 0.55946428 5.01720753 1.76322923 7.3125 4.5625 C7.90804688 5.27535156 8.50359375 5.98820313 9.1171875 6.72265625 C10.04917969 7.84994141 10.04917969 7.84994141 11 9 C12.30799014 10.50393419 13.62028716 12.00413684 14.9375 13.5 C15.95833333 14.66666667 16.97916667 15.83333333 18 17 C17.67 17.66 17.34 18.32 17 19 C16.27554687 18.19175781 15.55109375 17.38351563 14.8046875 16.55078125 C13.82833675 15.47116263 12.85176223 14.39174635 11.875 13.3125 C11.400625 12.78205078 10.92625 12.25160156 10.4375 11.70507812 C7.97232537 8.99005471 5.49877531 6.52441841 2.6328125 4.23046875 C1.76398438 3.49441406 0.89515625 2.75835937 0 2 C0 1.34 0 0.68 0 0 Z " fill="#5F8EBC" transform="translate(410,201)"/>
<path d="M0 0 C0 0.33 0 0.66 0 1 C-1.11117187 1.03738281 -2.22234375 1.07476562 -3.3671875 1.11328125 C-10.92662665 1.42691213 -17.93484848 1.76373403 -25.1171875 4.37890625 C-27 5 -27 5 -30 5 C-30 4.34 -30 3.68 -30 3 C-20.45623291 -1.21934966 -10.19145658 -0.28927715 0 0 Z " fill="#6392C2" transform="translate(224,289)"/>
<path d="M0 0 C6.56964462 0.35834425 12.70717087 2.1607356 19 4 C19 4.66 19 5.32 19 6 C11.94090922 4.87723429 4.96156852 3.62436599 -2 2 C-1.34 1.34 -0.68 0.68 0 0 Z " fill="#6D99C2" transform="translate(356,177)"/>
<path d="M0 0 C0.33 0 0.66 0 1 0 C0.125 7.625 0.125 7.625 -1 11 C-1.66 11 -2.32 11 -3 11 C-2.938125 11.928125 -2.87625 12.85625 -2.8125 13.8125 C-3 17 -3 17 -4.5 18.875 C-5.2425 19.431875 -5.2425 19.431875 -6 20 C-5.36757331 15.27497299 -4.08186437 11.09429803 -2.4375 6.625 C-2.20353516 5.98433594 -1.96957031 5.34367187 -1.72851562 4.68359375 C-1.15700381 3.1206839 -0.57915771 1.56009273 0 0 Z " fill="#6F9AC2" transform="translate(129,318)"/>
<path d="M0 0 C0.33 0 0.66 0 1 0 C1.1954384 2.89549503 1.38161395 5.79108998 1.5625 8.6875 C1.61857422 9.50412109 1.67464844 10.32074219 1.73242188 11.16210938 C1.98341571 15.29514123 2.11127743 18.95824282 1 23 C-1 21 -1 21 -1.13525391 18.84521484 C-1.08288574 17.97590332 -1.03051758 17.1065918 -0.9765625 16.2109375 C-0.925 15.26992188 -0.8734375 14.32890625 -0.8203125 13.359375 C-0.75585938 12.37453125 -0.69140625 11.3896875 -0.625 10.375 C-0.56828125 9.38242187 -0.5115625 8.38984375 -0.453125 7.3671875 C-0.31140759 4.91075233 -0.15997723 2.45530265 0 0 Z " fill="#6795C2" transform="translate(534,352)"/>
<path d="M0 0 C-2.84252891 2.84252891 -5.70145269 2.70388299 -9.58984375 3.2421875 C-12.57180678 4.17979014 -13.28399172 5.46952809 -15 8 C-15.66 8 -16.32 8 -17 8 C-13.74752209 -0.27903468 -7.90448283 -0.55254637 0 0 Z " fill="#6B95BE" transform="translate(399,248)"/>
<path d="M0 0 C-1.74843118 1.12743666 -3.4988094 2.2518542 -5.25 3.375 C-6.22453125 4.00148437 -7.1990625 4.62796875 -8.203125 5.2734375 C-10.43521615 6.65134852 -12.63087422 7.88312642 -15 9 C-13.74381926 5.23145777 -12.33985294 4.92041544 -9 3 C-8.67 2.34 -8.34 1.68 -8 1 C-2.47058824 -1.23529412 -2.47058824 -1.23529412 0 0 Z " fill="#6290BC" transform="translate(292,190)"/>
<path d="M0 0 C-2.85793316 2.85793316 -5.14665584 2.40799941 -9.125 2.625 C-10.40632813 2.69976562 -11.68765625 2.77453125 -13.0078125 2.8515625 C-13.99523437 2.90054687 -14.98265625 2.94953125 -16 3 C-13.18207306 1.47870459 -10.56006978 0.51521029 -7.4375 -0.1875 C-6.67308594 -0.36667969 -5.90867187 -0.54585938 -5.12109375 -0.73046875 C-3 -1 -3 -1 0 0 Z " fill="#5D8FBF" transform="translate(487,426)"/>
<path d="M0 0 C3.49928164 2.33285443 3.6329098 3.20795069 4.6875 7.125 C4.93886719 8.03507812 5.19023437 8.94515625 5.44921875 9.8828125 C5.72185547 10.93082031 5.72185547 10.93082031 6 12 C3.5625 11.0625 3.5625 11.0625 1 9 C0.2475065 6.01122299 0.07090135 3.07454047 0 0 Z " fill="#6798C4" transform="translate(149,376)"/>
<path d="M0 0 C0.66 0.33 1.32 0.66 2 1 C-1.3 4.3 -4.6 7.6 -8 11 C-8 8 -8 8 -7 5 C-5.37109375 3.61328125 -5.37109375 3.61328125 -3.4375 2.3125 C-2.79683594 1.87550781 -2.15617188 1.43851562 -1.49609375 0.98828125 C-0.75552734 0.49908203 -0.75552734 0.49908203 0 0 Z " fill="#5F8CBC" transform="translate(536,422)"/>
<path d="M0 0 C0.33 0 0.66 0 1 0 C1.375 2.0625 1.375 2.0625 1 5 C-0.79177109 7.53572282 -2.84238121 9.77174488 -5 12 C-5.66 11.67 -6.32 11.34 -7 11 C-5.85845641 9.16399255 -4.71165684 7.33125195 -3.5625 5.5 C-2.92441406 4.4790625 -2.28632813 3.458125 -1.62890625 2.40625 C-0.82259766 1.21515625 -0.82259766 1.21515625 0 0 Z " fill="#6996C1" transform="translate(231,206)"/>
<path d="M0 0 C0.99 0.33 1.98 0.66 3 1 C3 1.66 3 2.32 3 3 C3.99 3.33 4.98 3.66 6 4 C7.39712274 5.95597184 8.73779907 7.95436401 10 10 C9.01 10 8.02 10 7 10 C5.17578125 8.06640625 5.17578125 8.06640625 3.3125 5.5625 C2.68988281 4.73878906 2.06726563 3.91507812 1.42578125 3.06640625 C0 1 0 1 0 0 Z " fill="#6492BF" transform="translate(139,415)"/>
<path d="M0 0 C0.33 0.99 0.66 1.98 1 3 C-2.75 6 -2.75 6 -5 6 C-5.33 6.99 -5.66 7.98 -6 9 C-7.32 8.67 -8.64 8.34 -10 8 C-9.36191406 7.50628906 -8.72382813 7.01257813 -8.06640625 6.50390625 C-7.24011719 5.86324219 -6.41382813 5.22257812 -5.5625 4.5625 C-4.73878906 3.92441406 -3.91507812 3.28632813 -3.06640625 2.62890625 C-1.12498733 1.16417803 -1.12498733 1.16417803 0 0 Z " fill="#6A95BE" transform="translate(513,408)"/>
<path d="M0 0 C0.33 0 0.66 0 1 0 C0.91253716 1.43861294 0.80434652 2.87597508 0.6875 4.3125 C0.62949219 5.11300781 0.57148438 5.91351563 0.51171875 6.73828125 C-0.08206694 9.36272334 -0.95780294 10.30820672 -3 12 C-4 10 -4 10 -3.22265625 7.6171875 C-2.83980469 6.71226562 -2.45695313 5.80734375 -2.0625 4.875 C-1.68222656 3.96492187 -1.30195313 3.05484375 -0.91015625 2.1171875 C-0.60980469 1.41851562 -0.30945313 0.71984375 0 0 Z " fill="#749EC4" transform="translate(216,232)"/>
<path d="M0 0 C1.43739513 -0.02712066 2.87493863 -0.04645067 4.3125 -0.0625 C5.51326172 -0.07990234 5.51326172 -0.07990234 6.73828125 -0.09765625 C9 0 9 0 12 1 C12 1.66 12 2.32 12 3 C10.56163249 2.88541307 9.12429034 2.75790884 7.6875 2.625 C6.88699219 2.55539062 6.08648437 2.48578125 5.26171875 2.4140625 C3 2 3 2 0 0 Z " fill="#6F9CC8" transform="translate(188,451)"/>
<path d="M0 0 C1 4 1 4 0.3125 6.1875 C-1 8 -1 8 -5 9 C-3.35 6.03 -1.7 3.06 0 0 Z " fill="#6695C1" transform="translate(525,392)"/>
<path d="M0 0 C4.48525648 0.656379 8.66914029 1.70074209 13 3 C12.34 3.66 11.68 4.32 11 5 C7.37 4.01 3.74 3.02 0 2 C0 1.34 0 0.68 0 0 Z " fill="#6091C3" transform="translate(486,265)"/>
<path d="M0 0 C4.10958767 1.45044271 7.43258745 3.51110752 11 6 C10.34 6.66 9.68 7.32 9 8 C7.49712782 6.85793642 5.99776716 5.71125043 4.5 4.5625 C3.6646875 3.92441406 2.829375 3.28632813 1.96875 2.62890625 C1.3190625 2.09136719 0.669375 1.55382812 0 1 C0 0.67 0 0.34 0 0 Z " fill="#6091BD" transform="translate(155,432)"/>
<path d="M0 0 C0.33 0 0.66 0 1 0 C1.625 3.375 1.625 3.375 2 7 C1.34 7.66 0.68 8.32 0 9 C-0.99 9 -1.98 9 -3 9 C-2.01 6.03 -1.02 3.06 0 0 Z " fill="#6B98C5" transform="translate(529,383)"/>
<path d="M0 0 C0.66 0.33 1.32 0.66 2 1 C-1.96 4.465 -1.96 4.465 -6 8 C-6.66 6.68 -7.32 5.36 -8 4 C-7.236875 3.71125 -6.47375 3.4225 -5.6875 3.125 C-2.84970692 2.03730987 -2.84970692 2.03730987 0 0 Z " fill="#6594BE" transform="translate(177,301)"/>
<path d="M0 0 C0.66 0.33 1.32 0.66 2 1 C-0.64 3.97 -3.28 6.94 -6 10 C-6.66 9.67 -7.32 9.34 -8 9 C-5.36 6.03 -2.72 3.06 0 0 Z " fill="#5F8EB9" transform="translate(240,196)"/>
<path d="M0 0 C1.39195915 4.17587745 -0.17676781 6.13474776 -2 10 C-2.66 9.67 -3.32 9.34 -4 9 C-3.46930939 5.17902761 -2.50298434 2.93828597 0 0 Z " fill="#719AC0" transform="translate(279,251)"/>
<path d="M0 0 C0 0.33 0 0.66 0 1 C-4.0527516 1.98248524 -7.83861737 2.08159574 -12 2 C-7.30614786 -1.12923476 -5.57971023 -0.92995171 0 0 Z " fill="#5B8EC1" transform="translate(323,153)"/>
<path d="M0 0 C1.32 0 2.64 0 4 0 C5.0625 1.8125 5.0625 1.8125 6 4 C5.67 4.99 5.34 5.98 5 7 C0 1.125 0 1.125 0 0 Z " fill="#E0F3F8" transform="translate(161,398)"/>
<path d="M0 0 C0.66 0.33 1.32 0.66 2 1 C-0.97 4.96 -0.97 4.96 -4 9 C-4.33 8.01 -4.66 7.02 -5 6 C-3.59554165 3.7363436 -1.8032087 1.9791315 0 0 Z " fill="#6490BC" transform="translate(163,314)"/>
<path d="M0 0 C0.6875 1.6875 0.6875 1.6875 1 4 C-0.3125 6.75 -0.3125 6.75 -2 9 C-2.66 9 -3.32 9 -4 9 C-2.94124926 5.59687262 -1.99097846 2.98646769 0 0 Z " fill="#6795BF" transform="translate(223,219)"/>
<path d="M0 0 C3.78786597 0.5260925 6.17152224 1.38103911 9 4 C9 4.66 9 5.32 9 6 C5.56404834 4.47291037 2.88087546 2.40072955 0 0 Z " fill="#6592BE" transform="translate(400,195)"/>
</svg>
